# xmcd CD database file
#
# Track frame offsets:
#	225
#	2970
#	14709
#	25973
#	43239
#	58013
#	71665
#	79684
#	94635
#	110457
#	128857
#	140498
#	153795
#	169222
#	187441
#	198375
#	210071
#
# Disc length: 2896 seconds
#
# Revision: 0
# Processed by: cddbd v1.5.2PL0 Copyright (c) Steve Scherf et al.
# Submitted via: CDex 1.70beta2
#
DISCID=f00b4d11
DTITLE=Brothers of Mercy - Moments
DYEAR=2000
DGENRE=Jazz
TTITLE0=Intro
TTITLE1=Pass Me Not
TTITLE2=Forever
TTITLE3=Moments Presents
TTITLE4=The Spririt
TTITLE5=Throne of Glory
TTITLE6=Beautiful Moments
TTITLE7=A Glorious Land
TTITLE8=I Know
TTITLE9=Let Us Sing
TTITLE10=Moments Process
TTITLE11=Tired Hearts
TTITLE12=Liliaceos
TTITLE13=Storms of Life
TTITLE14=Espiration
TTITLE15=Moments Eternity
TTITLE16=Extro
EXTD=YEAR: 2000
EXTT0=
EXTT1=
EXTT2=
EXTT3=
EXTT4=
EXTT5=
EXTT6=
EXTT7=
EXTT8=
EXTT9=
EXTT10=
EXTT11=
EXTT12=
EXTT13=
EXTT14=
EXTT15=
EXTT16=
PLAYORDER=
